# xmcd
#
# Track frame offsets:
#	182
#	13207
#	30382
#	45820
#	66632
#	86920
#	108682
#	127182
#	146332
#	160682
#	177932
#	202557
#	218032
#	228357
#	240632
#	258707
#	277757
#	298407
#
# Disc length: 4195
#
# Revision: 2
# Processed by: cddbd v1.5.1PL0 Copyright (c) Steve Scherf et al.
# Submitted via: CDex 1.51
# Normalized: r1:TDELIM( - ),TSWAP
#
DISCID=05106112
DTITLE=Various Artist - The Blues Experience
DYEAR=1994
DGENRE=Blues
TTITLE0=J.J. Cale - Cocaine
TTITLE1=Robert Cray - Don't be afraid of the dark
TTITLE2=B.B. King - In the midnight hour
TTITLE3=Stevie Ray Vaughan - The sky is crying
TTITLE4=The animals - House of the rising sun
TTITLE5=Paul Rodgers - Muddy Waters Blues (electric version)
TTITLE6=The Allman Brothers Band - Statesboro blues
TTITLE7=Cream - Crossroads
TTITLE8=The Black Crowes - Hard to handle
TTITLE9=Dire Straits - Fade to black
TTITLE10=Joe Cocker - Inner city blues
TTITLE11=Canned Heat - On the road again
TTITLE12=John Mayall - Crawling up a hill
TTITLE13=Spencer Davis Group - Keep on running
TTITLE14=ZZ Top - Gimme all your lovin
TTITLE15=Santana - Make somebody happy
TTITLE16=Lucky Peterson - Who's been talkin
TTITLE17=Los Lobos - Kiko and the lavender moon
EXTD=YEAR: 1994
EXTT0=
EXTT1=
EXTT2=
EXTT3=
EXTT4=
EXTT5=
EXTT6=
EXTT7=
EXTT8=
EXTT9=
EXTT10=
EXTT11=
EXTT12=
EXTT13=
EXTT14=
EXTT15=
EXTT16=
EXTT17=
PLAYORDER=
